<mxfile host="Electron" agent="Mozilla/5.0 (Windows NT 10.0; Win64; x64) AppleWebKit/537.36 (KHTML, like Gecko) draw.io/24.7.8 Chrome/128.0.6613.36 Electron/32.0.1 Safari/537.36" version="24.7.8">
  <diagram name="Page-1" id="2YBvvXClWsGukQMizWep">
    <mxGraphModel dx="1591" dy="-314" grid="1" gridSize="10" guides="1" tooltips="1" connect="1" arrows="1" fold="1" page="1" pageScale="1" pageWidth="850" pageHeight="1100" math="0" shadow="0">
      <root>
        <mxCell id="0" />
        <mxCell id="1" parent="0" />
        <mxCell id="k-re9EcaImyQml1QrG_B-1" value="&lt;font style=&quot;font-size: 18px;&quot;&gt;Account&amp;nbsp;&lt;/font&gt;" style="shape=umlLifeline;perimeter=lifelinePerimeter;whiteSpace=wrap;html=1;container=1;dropTarget=0;collapsible=0;recursiveResize=0;outlineConnect=0;portConstraint=eastwest;newEdgeStyle={&quot;curved&quot;:0,&quot;rounded&quot;:0};" parent="1" vertex="1">
          <mxGeometry x="120" y="1160" width="100" height="1570" as="geometry" />
        </mxCell>
        <mxCell id="k-re9EcaImyQml1QrG_B-12" value="" style="html=1;points=[[0,0,0,0,5],[0,1,0,0,-5],[1,0,0,0,5],[1,1,0,0,-5]];perimeter=orthogonalPerimeter;outlineConnect=0;targetShapes=umlLifeline;portConstraint=eastwest;newEdgeStyle={&quot;curved&quot;:0,&quot;rounded&quot;:0};" parent="k-re9EcaImyQml1QrG_B-1" vertex="1">
          <mxGeometry x="45" y="120" width="10" height="80" as="geometry" />
        </mxCell>
        <mxCell id="k-re9EcaImyQml1QrG_B-93" value="" style="html=1;points=[[0,0,0,0,5],[0,1,0,0,-5],[1,0,0,0,5],[1,1,0,0,-5]];perimeter=orthogonalPerimeter;outlineConnect=0;targetShapes=umlLifeline;portConstraint=eastwest;newEdgeStyle={&quot;curved&quot;:0,&quot;rounded&quot;:0};" parent="k-re9EcaImyQml1QrG_B-1" vertex="1">
          <mxGeometry x="45" y="1390" width="10" height="40" as="geometry" />
        </mxCell>
        <mxCell id="AGcAtsct38KCWhLGrGwE-18" value="" style="html=1;points=[[0,0,0,0,5],[0,1,0,0,-5],[1,0,0,0,5],[1,1,0,0,-5]];perimeter=orthogonalPerimeter;outlineConnect=0;targetShapes=umlLifeline;portConstraint=eastwest;newEdgeStyle={&quot;curved&quot;:0,&quot;rounded&quot;:0};" parent="k-re9EcaImyQml1QrG_B-1" vertex="1">
          <mxGeometry x="45" y="1260" width="10" height="80" as="geometry" />
        </mxCell>
        <mxCell id="Ts-0K6XEaP82r1S4LTex-16" value="" style="shape=umlDestroy;whiteSpace=wrap;html=1;strokeWidth=3;targetShapes=umlLifeline;" parent="k-re9EcaImyQml1QrG_B-1" vertex="1">
          <mxGeometry x="35" y="1530" width="30" height="30" as="geometry" />
        </mxCell>
        <mxCell id="k-re9EcaImyQml1QrG_B-2" value="&lt;font style=&quot;font-size: 18px;&quot;&gt;User&amp;nbsp;&lt;/font&gt;" style="shape=umlLifeline;perimeter=lifelinePerimeter;whiteSpace=wrap;html=1;container=1;dropTarget=0;collapsible=0;recursiveResize=0;outlineConnect=0;portConstraint=eastwest;newEdgeStyle={&quot;curved&quot;:0,&quot;rounded&quot;:0};" parent="1" vertex="1">
          <mxGeometry x="280" y="1160" width="100" height="1560" as="geometry" />
        </mxCell>
        <mxCell id="k-re9EcaImyQml1QrG_B-19" value="" style="html=1;points=[[0,0,0,0,5],[0,1,0,0,-5],[1,0,0,0,5],[1,1,0,0,-5]];perimeter=orthogonalPerimeter;outlineConnect=0;targetShapes=umlLifeline;portConstraint=eastwest;newEdgeStyle={&quot;curved&quot;:0,&quot;rounded&quot;:0};" parent="k-re9EcaImyQml1QrG_B-2" vertex="1">
          <mxGeometry x="45" y="240" width="10" height="80" as="geometry" />
        </mxCell>
        <mxCell id="Ts-0K6XEaP82r1S4LTex-17" value="" style="shape=umlDestroy;whiteSpace=wrap;html=1;strokeWidth=3;targetShapes=umlLifeline;" parent="k-re9EcaImyQml1QrG_B-2" vertex="1">
          <mxGeometry x="35" y="1530" width="30" height="30" as="geometry" />
        </mxCell>
        <mxCell id="k-re9EcaImyQml1QrG_B-3" value="&lt;font style=&quot;font-size: 18px;&quot;&gt;Category&lt;/font&gt;" style="shape=umlLifeline;perimeter=lifelinePerimeter;whiteSpace=wrap;html=1;container=1;dropTarget=0;collapsible=0;recursiveResize=0;outlineConnect=0;portConstraint=eastwest;newEdgeStyle={&quot;curved&quot;:0,&quot;rounded&quot;:0};" parent="1" vertex="1">
          <mxGeometry x="440" y="1160" width="100" height="1560" as="geometry" />
        </mxCell>
        <mxCell id="k-re9EcaImyQml1QrG_B-56" value="" style="html=1;points=[[0,0,0,0,5],[0,1,0,0,-5],[1,0,0,0,5],[1,1,0,0,-5]];perimeter=orthogonalPerimeter;outlineConnect=0;targetShapes=umlLifeline;portConstraint=eastwest;newEdgeStyle={&quot;curved&quot;:0,&quot;rounded&quot;:0};" parent="k-re9EcaImyQml1QrG_B-3" vertex="1">
          <mxGeometry x="45" y="480" width="10" height="80" as="geometry" />
        </mxCell>
        <mxCell id="Ts-0K6XEaP82r1S4LTex-18" value="" style="shape=umlDestroy;whiteSpace=wrap;html=1;strokeWidth=3;targetShapes=umlLifeline;" parent="k-re9EcaImyQml1QrG_B-3" vertex="1">
          <mxGeometry x="35" y="1530" width="30" height="30" as="geometry" />
        </mxCell>
        <mxCell id="k-re9EcaImyQml1QrG_B-4" value="&lt;font style=&quot;font-size: 18px;&quot;&gt;Payment&lt;/font&gt;" style="shape=umlLifeline;perimeter=lifelinePerimeter;whiteSpace=wrap;html=1;container=1;dropTarget=0;collapsible=0;recursiveResize=0;outlineConnect=0;portConstraint=eastwest;newEdgeStyle={&quot;curved&quot;:0,&quot;rounded&quot;:0};" parent="1" vertex="1">
          <mxGeometry x="600" y="1160" width="100" height="1560" as="geometry" />
        </mxCell>
        <mxCell id="Ts-0K6XEaP82r1S4LTex-19" value="" style="shape=umlDestroy;whiteSpace=wrap;html=1;strokeWidth=3;targetShapes=umlLifeline;" parent="k-re9EcaImyQml1QrG_B-4" vertex="1">
          <mxGeometry x="35" y="1530" width="30" height="30" as="geometry" />
        </mxCell>
        <mxCell id="k-re9EcaImyQml1QrG_B-5" value="&lt;font style=&quot;font-size: 18px;&quot;&gt;Spin To Win&amp;nbsp;&lt;/font&gt;" style="shape=umlLifeline;perimeter=lifelinePerimeter;whiteSpace=wrap;html=1;container=1;dropTarget=0;collapsible=0;recursiveResize=0;outlineConnect=0;portConstraint=eastwest;newEdgeStyle={&quot;curved&quot;:0,&quot;rounded&quot;:0};" parent="1" vertex="1">
          <mxGeometry x="760" y="1160" width="100" height="1560" as="geometry" />
        </mxCell>
        <mxCell id="k-re9EcaImyQml1QrG_B-63" value="" style="html=1;points=[[0,0,0,0,5],[0,1,0,0,-5],[1,0,0,0,5],[1,1,0,0,-5]];perimeter=orthogonalPerimeter;outlineConnect=0;targetShapes=umlLifeline;portConstraint=eastwest;newEdgeStyle={&quot;curved&quot;:0,&quot;rounded&quot;:0};" parent="k-re9EcaImyQml1QrG_B-5" vertex="1">
          <mxGeometry x="45" y="600" width="10" height="80" as="geometry" />
        </mxCell>
        <mxCell id="Ts-0K6XEaP82r1S4LTex-20" value="" style="shape=umlDestroy;whiteSpace=wrap;html=1;strokeWidth=3;targetShapes=umlLifeline;" parent="k-re9EcaImyQml1QrG_B-5" vertex="1">
          <mxGeometry x="35" y="1530" width="30" height="30" as="geometry" />
        </mxCell>
        <mxCell id="k-re9EcaImyQml1QrG_B-6" value="&lt;font style=&quot;font-size: 18px;&quot;&gt;Reselling&amp;nbsp;&lt;/font&gt;" style="shape=umlLifeline;perimeter=lifelinePerimeter;whiteSpace=wrap;html=1;container=1;dropTarget=0;collapsible=0;recursiveResize=0;outlineConnect=0;portConstraint=eastwest;newEdgeStyle={&quot;curved&quot;:0,&quot;rounded&quot;:0};" parent="1" vertex="1">
          <mxGeometry x="920" y="1160" width="100" height="1560" as="geometry" />
        </mxCell>
        <mxCell id="k-re9EcaImyQml1QrG_B-71" value="" style="html=1;points=[[0,0,0,0,5],[0,1,0,0,-5],[1,0,0,0,5],[1,1,0,0,-5]];perimeter=orthogonalPerimeter;outlineConnect=0;targetShapes=umlLifeline;portConstraint=eastwest;newEdgeStyle={&quot;curved&quot;:0,&quot;rounded&quot;:0};" parent="k-re9EcaImyQml1QrG_B-6" vertex="1">
          <mxGeometry x="45" y="720" width="10" height="80" as="geometry" />
        </mxCell>
        <mxCell id="Ts-0K6XEaP82r1S4LTex-21" value="" style="shape=umlDestroy;whiteSpace=wrap;html=1;strokeWidth=3;targetShapes=umlLifeline;" parent="k-re9EcaImyQml1QrG_B-6" vertex="1">
          <mxGeometry x="35" y="1530" width="30" height="30" as="geometry" />
        </mxCell>
        <mxCell id="k-re9EcaImyQml1QrG_B-7" value="&lt;font style=&quot;font-size: 18px;&quot;&gt;FAQ&amp;nbsp;&lt;/font&gt;" style="shape=umlLifeline;perimeter=lifelinePerimeter;whiteSpace=wrap;html=1;container=1;dropTarget=0;collapsible=0;recursiveResize=0;outlineConnect=0;portConstraint=eastwest;newEdgeStyle={&quot;curved&quot;:0,&quot;rounded&quot;:0};size=40;" parent="1" vertex="1">
          <mxGeometry x="1080" y="1160" width="100" height="1560" as="geometry" />
        </mxCell>
        <mxCell id="k-re9EcaImyQml1QrG_B-40" value="" style="html=1;points=[[0,0,0,0,5],[0,1,0,0,-5],[1,0,0,0,5],[1,1,0,0,-5]];perimeter=orthogonalPerimeter;outlineConnect=0;targetShapes=umlLifeline;portConstraint=eastwest;newEdgeStyle={&quot;curved&quot;:0,&quot;rounded&quot;:0};" parent="k-re9EcaImyQml1QrG_B-7" vertex="1">
          <mxGeometry x="45" y="360" width="10" height="80" as="geometry" />
        </mxCell>
        <mxCell id="Ts-0K6XEaP82r1S4LTex-22" value="" style="shape=umlDestroy;whiteSpace=wrap;html=1;strokeWidth=3;targetShapes=umlLifeline;" parent="k-re9EcaImyQml1QrG_B-7" vertex="1">
          <mxGeometry x="35" y="1530" width="30" height="30" as="geometry" />
        </mxCell>
        <mxCell id="k-re9EcaImyQml1QrG_B-8" value="&lt;font style=&quot;font-size: 18px;&quot;&gt;Review&lt;/font&gt;" style="shape=umlLifeline;perimeter=lifelinePerimeter;whiteSpace=wrap;html=1;container=1;dropTarget=0;collapsible=0;recursiveResize=0;outlineConnect=0;portConstraint=eastwest;newEdgeStyle={&quot;curved&quot;:0,&quot;rounded&quot;:0};" parent="1" vertex="1">
          <mxGeometry x="1240" y="1160" width="100" height="1560" as="geometry" />
        </mxCell>
        <mxCell id="Ts-0K6XEaP82r1S4LTex-23" value="" style="shape=umlDestroy;whiteSpace=wrap;html=1;strokeWidth=3;targetShapes=umlLifeline;" parent="k-re9EcaImyQml1QrG_B-8" vertex="1">
          <mxGeometry x="35" y="1530" width="30" height="30" as="geometry" />
        </mxCell>
        <mxCell id="k-re9EcaImyQml1QrG_B-9" value="" style="shape=umlLifeline;perimeter=lifelinePerimeter;whiteSpace=wrap;html=1;container=1;dropTarget=0;collapsible=0;recursiveResize=0;outlineConnect=0;portConstraint=eastwest;newEdgeStyle={&quot;curved&quot;:0,&quot;rounded&quot;:0};participant=umlActor;" parent="1" vertex="1">
          <mxGeometry x="40" y="1160" width="40" height="1560" as="geometry" />
        </mxCell>
        <mxCell id="k-re9EcaImyQml1QrG_B-11" value="" style="html=1;points=[[0,0,0,0,5],[0,1,0,0,-5],[1,0,0,0,5],[1,1,0,0,-5]];perimeter=orthogonalPerimeter;outlineConnect=0;targetShapes=umlLifeline;portConstraint=eastwest;newEdgeStyle={&quot;curved&quot;:0,&quot;rounded&quot;:0};" parent="k-re9EcaImyQml1QrG_B-9" vertex="1">
          <mxGeometry x="15" y="120" width="10" height="80" as="geometry" />
        </mxCell>
        <mxCell id="k-re9EcaImyQml1QrG_B-18" value="" style="html=1;points=[[0,0,0,0,5],[0,1,0,0,-5],[1,0,0,0,5],[1,1,0,0,-5]];perimeter=orthogonalPerimeter;outlineConnect=0;targetShapes=umlLifeline;portConstraint=eastwest;newEdgeStyle={&quot;curved&quot;:0,&quot;rounded&quot;:0};" parent="k-re9EcaImyQml1QrG_B-9" vertex="1">
          <mxGeometry x="15" y="240" width="10" height="80" as="geometry" />
        </mxCell>
        <mxCell id="k-re9EcaImyQml1QrG_B-55" value="" style="html=1;points=[[0,0,0,0,5],[0,1,0,0,-5],[1,0,0,0,5],[1,1,0,0,-5]];perimeter=orthogonalPerimeter;outlineConnect=0;targetShapes=umlLifeline;portConstraint=eastwest;newEdgeStyle={&quot;curved&quot;:0,&quot;rounded&quot;:0};" parent="k-re9EcaImyQml1QrG_B-9" vertex="1">
          <mxGeometry x="15" y="480" width="10" height="80" as="geometry" />
        </mxCell>
        <mxCell id="k-re9EcaImyQml1QrG_B-62" value="" style="html=1;points=[[0,0,0,0,5],[0,1,0,0,-5],[1,0,0,0,5],[1,1,0,0,-5]];perimeter=orthogonalPerimeter;outlineConnect=0;targetShapes=umlLifeline;portConstraint=eastwest;newEdgeStyle={&quot;curved&quot;:0,&quot;rounded&quot;:0};" parent="k-re9EcaImyQml1QrG_B-9" vertex="1">
          <mxGeometry x="15" y="600" width="10" height="80" as="geometry" />
        </mxCell>
        <mxCell id="k-re9EcaImyQml1QrG_B-70" value="" style="html=1;points=[[0,0,0,0,5],[0,1,0,0,-5],[1,0,0,0,5],[1,1,0,0,-5]];perimeter=orthogonalPerimeter;outlineConnect=0;targetShapes=umlLifeline;portConstraint=eastwest;newEdgeStyle={&quot;curved&quot;:0,&quot;rounded&quot;:0};" parent="k-re9EcaImyQml1QrG_B-9" vertex="1">
          <mxGeometry x="15" y="720" width="10" height="80" as="geometry" />
        </mxCell>
        <mxCell id="k-re9EcaImyQml1QrG_B-92" value="" style="html=1;points=[[0,0,0,0,5],[0,1,0,0,-5],[1,0,0,0,5],[1,1,0,0,-5]];perimeter=orthogonalPerimeter;outlineConnect=0;targetShapes=umlLifeline;portConstraint=eastwest;newEdgeStyle={&quot;curved&quot;:0,&quot;rounded&quot;:0};" parent="k-re9EcaImyQml1QrG_B-9" vertex="1">
          <mxGeometry x="15" y="1390" width="10" height="40" as="geometry" />
        </mxCell>
        <mxCell id="QVrLcY5WrnJz7_LlassW-1" value="" style="html=1;points=[[0,0,0,0,5],[0,1,0,0,-5],[1,0,0,0,5],[1,1,0,0,-5]];perimeter=orthogonalPerimeter;outlineConnect=0;targetShapes=umlLifeline;portConstraint=eastwest;newEdgeStyle={&quot;curved&quot;:0,&quot;rounded&quot;:0};" parent="k-re9EcaImyQml1QrG_B-9" vertex="1">
          <mxGeometry x="15" y="840" width="10" height="80" as="geometry" />
        </mxCell>
        <mxCell id="AGcAtsct38KCWhLGrGwE-17" value="" style="html=1;points=[[0,0,0,0,5],[0,1,0,0,-5],[1,0,0,0,5],[1,1,0,0,-5]];perimeter=orthogonalPerimeter;outlineConnect=0;targetShapes=umlLifeline;portConstraint=eastwest;newEdgeStyle={&quot;curved&quot;:0,&quot;rounded&quot;:0};" parent="k-re9EcaImyQml1QrG_B-9" vertex="1">
          <mxGeometry x="15" y="1260" width="10" height="80" as="geometry" />
        </mxCell>
        <mxCell id="Ts-0K6XEaP82r1S4LTex-15" value="" style="shape=umlDestroy;whiteSpace=wrap;html=1;strokeWidth=3;targetShapes=umlLifeline;" parent="k-re9EcaImyQml1QrG_B-9" vertex="1">
          <mxGeometry x="5" y="1530" width="30" height="30" as="geometry" />
        </mxCell>
        <mxCell id="k-re9EcaImyQml1QrG_B-10" value="&lt;font style=&quot;font-size: 18px;&quot;&gt;Admin&lt;/font&gt;" style="text;align=center;fontStyle=1;verticalAlign=middle;spacingLeft=3;spacingRight=3;strokeColor=none;rotatable=0;points=[[0,0.5],[1,0.5]];portConstraint=eastwest;html=1;" parent="1" vertex="1">
          <mxGeometry x="20" y="1210" width="80" height="26" as="geometry" />
        </mxCell>
        <mxCell id="k-re9EcaImyQml1QrG_B-13" value="&lt;font style=&quot;font-size: 18px;&quot;&gt;Login&amp;nbsp;&lt;/font&gt;" style="html=1;verticalAlign=bottom;endArrow=block;curved=0;rounded=0;" parent="1" target="k-re9EcaImyQml1QrG_B-12" edge="1">
          <mxGeometry width="80" relative="1" as="geometry">
            <mxPoint x="65" y="1280" as="sourcePoint" />
            <mxPoint x="145" y="1280" as="targetPoint" />
          </mxGeometry>
        </mxCell>
        <mxCell id="k-re9EcaImyQml1QrG_B-15" value="&lt;font style=&quot;font-size: 18px;&quot;&gt;Check&amp;nbsp;&lt;/font&gt;" style="html=1;verticalAlign=bottom;endArrow=block;curved=0;rounded=0;" parent="1" target="QVrLcY5WrnJz7_LlassW-3" edge="1">
          <mxGeometry width="80" relative="1" as="geometry">
            <mxPoint x="175" y="1320" as="sourcePoint" />
            <mxPoint x="255" y="1320" as="targetPoint" />
          </mxGeometry>
        </mxCell>
        <mxCell id="k-re9EcaImyQml1QrG_B-16" value="&lt;font style=&quot;font-size: 18px;&quot;&gt;return&lt;/font&gt;" style="html=1;verticalAlign=bottom;endArrow=open;dashed=1;endSize=8;curved=0;rounded=0;exitX=0;exitY=1;exitDx=0;exitDy=-5;exitPerimeter=0;" parent="1" edge="1">
          <mxGeometry relative="1" as="geometry">
            <mxPoint x="1605" y="1355" as="sourcePoint" />
            <mxPoint x="169.5" y="1355" as="targetPoint" />
          </mxGeometry>
        </mxCell>
        <mxCell id="oGTYTgYYTeIVbtrsgMeI-3" value="Text" style="edgeLabel;html=1;align=center;verticalAlign=middle;resizable=0;points=[];" parent="k-re9EcaImyQml1QrG_B-16" vertex="1" connectable="0">
          <mxGeometry x="-0.0147" y="-2" relative="1" as="geometry">
            <mxPoint as="offset" />
          </mxGeometry>
        </mxCell>
        <mxCell id="k-re9EcaImyQml1QrG_B-17" value="&lt;font style=&quot;font-size: 18px;&quot;&gt;return&lt;/font&gt;" style="html=1;verticalAlign=bottom;endArrow=open;dashed=1;endSize=8;curved=0;rounded=0;" parent="1" edge="1">
          <mxGeometry relative="1" as="geometry">
            <mxPoint x="160" y="1360" as="sourcePoint" />
            <mxPoint x="65" y="1360" as="targetPoint" />
          </mxGeometry>
        </mxCell>
        <mxCell id="k-re9EcaImyQml1QrG_B-20" value="&lt;font style=&quot;font-size: 18px;&quot;&gt;Manage Users&lt;/font&gt;" style="html=1;verticalAlign=bottom;endArrow=block;curved=0;rounded=0;" parent="1" target="k-re9EcaImyQml1QrG_B-2" edge="1">
          <mxGeometry width="80" relative="1" as="geometry">
            <mxPoint x="65" y="1400" as="sourcePoint" />
            <mxPoint x="145" y="1400" as="targetPoint" />
          </mxGeometry>
        </mxCell>
        <mxCell id="k-re9EcaImyQml1QrG_B-22" value="&lt;font style=&quot;font-size: 18px;&quot;&gt;Save Changes&amp;nbsp;&lt;/font&gt;" style="html=1;verticalAlign=bottom;endArrow=block;curved=0;rounded=0;" parent="1" target="k-re9EcaImyQml1QrG_B-21" edge="1">
          <mxGeometry width="80" relative="1" as="geometry">
            <mxPoint x="340" y="1440" as="sourcePoint" />
            <mxPoint x="1370" y="1430" as="targetPoint" />
          </mxGeometry>
        </mxCell>
        <mxCell id="k-re9EcaImyQml1QrG_B-23" value="&lt;font style=&quot;font-size: 18px;&quot;&gt;return&lt;/font&gt;" style="html=1;verticalAlign=bottom;endArrow=open;dashed=1;endSize=8;curved=0;rounded=0;exitX=0;exitY=1;exitDx=0;exitDy=-5;exitPerimeter=0;" parent="1" source="k-re9EcaImyQml1QrG_B-21" target="k-re9EcaImyQml1QrG_B-2" edge="1">
          <mxGeometry relative="1" as="geometry">
            <mxPoint x="1285" y="1478.82" as="sourcePoint" />
            <mxPoint x="1205" y="1478.82" as="targetPoint" />
          </mxGeometry>
        </mxCell>
        <mxCell id="k-re9EcaImyQml1QrG_B-24" value="&lt;font style=&quot;font-size: 18px;&quot;&gt;return&lt;/font&gt;" style="html=1;verticalAlign=bottom;endArrow=open;dashed=1;endSize=8;curved=0;rounded=0;" parent="1" target="k-re9EcaImyQml1QrG_B-9" edge="1">
          <mxGeometry relative="1" as="geometry">
            <mxPoint x="325" y="1480" as="sourcePoint" />
            <mxPoint x="245" y="1480" as="targetPoint" />
          </mxGeometry>
        </mxCell>
        <mxCell id="k-re9EcaImyQml1QrG_B-41" value="" style="html=1;points=[[0,0,0,0,5],[0,1,0,0,-5],[1,0,0,0,5],[1,1,0,0,-5]];perimeter=orthogonalPerimeter;outlineConnect=0;targetShapes=umlLifeline;portConstraint=eastwest;newEdgeStyle={&quot;curved&quot;:0,&quot;rounded&quot;:0};" parent="1" vertex="1">
          <mxGeometry x="55" y="1520" width="10" height="80" as="geometry" />
        </mxCell>
        <mxCell id="k-re9EcaImyQml1QrG_B-42" value="&lt;font style=&quot;font-size: 18px;&quot;&gt;Manage FAQ&amp;nbsp;&lt;/font&gt;" style="html=1;verticalAlign=bottom;endArrow=block;curved=0;rounded=0;" parent="1" target="k-re9EcaImyQml1QrG_B-7" edge="1">
          <mxGeometry width="80" relative="1" as="geometry">
            <mxPoint x="65" y="1520" as="sourcePoint" />
            <mxPoint x="330" y="1520" as="targetPoint" />
          </mxGeometry>
        </mxCell>
        <mxCell id="k-re9EcaImyQml1QrG_B-44" value="&lt;font style=&quot;font-size: 18px;&quot;&gt;Save Changes&amp;nbsp;&lt;/font&gt;" style="html=1;verticalAlign=bottom;endArrow=block;curved=0;rounded=0;" parent="1" target="QVrLcY5WrnJz7_LlassW-3" edge="1">
          <mxGeometry width="80" relative="1" as="geometry">
            <mxPoint x="1140.5555216471355" y="1560" as="sourcePoint" />
            <mxPoint x="1290" y="1560" as="targetPoint" />
          </mxGeometry>
        </mxCell>
        <mxCell id="k-re9EcaImyQml1QrG_B-45" value="&lt;font style=&quot;font-size: 18px;&quot;&gt;return&lt;/font&gt;" style="html=1;verticalAlign=bottom;endArrow=open;dashed=1;endSize=8;curved=0;rounded=0;" parent="1" source="QVrLcY5WrnJz7_LlassW-3" edge="1">
          <mxGeometry relative="1" as="geometry">
            <mxPoint x="1285" y="1598.82" as="sourcePoint" />
            <mxPoint x="1140.5556233723958" y="1599" as="targetPoint" />
          </mxGeometry>
        </mxCell>
        <mxCell id="k-re9EcaImyQml1QrG_B-46" value="&lt;font style=&quot;font-size: 18px;&quot;&gt;return&lt;/font&gt;" style="html=1;verticalAlign=bottom;endArrow=open;dashed=1;endSize=8;curved=0;rounded=0;" parent="1" source="k-re9EcaImyQml1QrG_B-7" edge="1">
          <mxGeometry relative="1" as="geometry">
            <mxPoint x="325" y="1600" as="sourcePoint" />
            <mxPoint x="59" y="1600" as="targetPoint" />
          </mxGeometry>
        </mxCell>
        <mxCell id="k-re9EcaImyQml1QrG_B-57" value="&lt;font style=&quot;font-size: 18px;&quot;&gt;Manage Category ( Add , Update , Delete )&amp;nbsp;&lt;/font&gt;" style="html=1;verticalAlign=bottom;endArrow=block;curved=0;rounded=0;" parent="1" target="k-re9EcaImyQml1QrG_B-3" edge="1">
          <mxGeometry width="80" relative="1" as="geometry">
            <mxPoint x="65" y="1640" as="sourcePoint" />
            <mxPoint x="145" y="1640" as="targetPoint" />
          </mxGeometry>
        </mxCell>
        <mxCell id="k-re9EcaImyQml1QrG_B-59" value="&lt;font style=&quot;font-size: 18px;&quot;&gt;Save Changes&amp;nbsp;&lt;/font&gt;" style="html=1;verticalAlign=bottom;endArrow=block;curved=0;rounded=0;" parent="1" target="QVrLcY5WrnJz7_LlassW-3" edge="1">
          <mxGeometry width="80" relative="1" as="geometry">
            <mxPoint x="495" y="1680" as="sourcePoint" />
            <mxPoint x="575" y="1680" as="targetPoint" />
          </mxGeometry>
        </mxCell>
        <mxCell id="k-re9EcaImyQml1QrG_B-60" value="&lt;font style=&quot;font-size: 18px;&quot;&gt;return&lt;/font&gt;" style="html=1;verticalAlign=bottom;endArrow=open;dashed=1;endSize=8;curved=0;rounded=0;exitX=0;exitY=1;exitDx=0;exitDy=-5;exitPerimeter=0;" parent="1" source="k-re9EcaImyQml1QrG_B-66" target="k-re9EcaImyQml1QrG_B-3" edge="1">
          <mxGeometry relative="1" as="geometry">
            <mxPoint x="1290" y="1720" as="sourcePoint" />
            <mxPoint x="1210" y="1720" as="targetPoint" />
          </mxGeometry>
        </mxCell>
        <mxCell id="k-re9EcaImyQml1QrG_B-61" value="&lt;font style=&quot;font-size: 18px;&quot;&gt;return&lt;/font&gt;" style="html=1;verticalAlign=bottom;endArrow=open;dashed=1;endSize=8;curved=0;rounded=0;" parent="1" target="k-re9EcaImyQml1QrG_B-9" edge="1">
          <mxGeometry relative="1" as="geometry">
            <mxPoint x="490" y="1720" as="sourcePoint" />
            <mxPoint x="410" y="1720" as="targetPoint" />
          </mxGeometry>
        </mxCell>
        <mxCell id="k-re9EcaImyQml1QrG_B-64" value="&lt;font style=&quot;font-size: 18px;&quot;&gt;Manage Spin To Win And Coupen&amp;nbsp;&lt;/font&gt;" style="html=1;verticalAlign=bottom;endArrow=block;curved=0;rounded=0;" parent="1" target="k-re9EcaImyQml1QrG_B-5" edge="1">
          <mxGeometry width="80" relative="1" as="geometry">
            <mxPoint x="65" y="1760" as="sourcePoint" />
            <mxPoint x="145" y="1760" as="targetPoint" />
          </mxGeometry>
        </mxCell>
        <mxCell id="k-re9EcaImyQml1QrG_B-67" value="&lt;font style=&quot;font-size: 18px;&quot;&gt;Save Changes&amp;nbsp;&lt;/font&gt;" style="html=1;verticalAlign=bottom;endArrow=block;curved=0;rounded=0;" parent="1" target="QVrLcY5WrnJz7_LlassW-3" edge="1">
          <mxGeometry width="80" relative="1" as="geometry">
            <mxPoint x="810" y="1800" as="sourcePoint" />
            <mxPoint x="890" y="1800" as="targetPoint" />
          </mxGeometry>
        </mxCell>
        <mxCell id="k-re9EcaImyQml1QrG_B-68" value="&lt;font style=&quot;font-size: 18px;&quot;&gt;return&lt;/font&gt;" style="html=1;verticalAlign=bottom;endArrow=open;dashed=1;endSize=8;curved=0;rounded=0;exitX=0;exitY=1;exitDx=0;exitDy=-5;exitPerimeter=0;" parent="1" source="k-re9EcaImyQml1QrG_B-58" target="k-re9EcaImyQml1QrG_B-5" edge="1">
          <mxGeometry relative="1" as="geometry">
            <mxPoint x="1285" y="1840" as="sourcePoint" />
            <mxPoint x="1205" y="1840" as="targetPoint" />
          </mxGeometry>
        </mxCell>
        <mxCell id="k-re9EcaImyQml1QrG_B-69" value="&lt;font style=&quot;font-size: 18px;&quot;&gt;return&lt;/font&gt;" style="html=1;verticalAlign=bottom;endArrow=open;dashed=1;endSize=8;curved=0;rounded=0;" parent="1" target="k-re9EcaImyQml1QrG_B-9" edge="1">
          <mxGeometry relative="1" as="geometry">
            <mxPoint x="810" y="1840" as="sourcePoint" />
            <mxPoint x="730" y="1840" as="targetPoint" />
          </mxGeometry>
        </mxCell>
        <mxCell id="k-re9EcaImyQml1QrG_B-72" value="&lt;font style=&quot;font-size: 18px;&quot;&gt;Manage Reselling Products ( Accept / Decline , View , Delete )&amp;nbsp;&lt;/font&gt;" style="html=1;verticalAlign=bottom;endArrow=block;curved=0;rounded=0;" parent="1" target="k-re9EcaImyQml1QrG_B-6" edge="1">
          <mxGeometry width="80" relative="1" as="geometry">
            <mxPoint x="65" y="1880" as="sourcePoint" />
            <mxPoint x="145" y="1880" as="targetPoint" />
          </mxGeometry>
        </mxCell>
        <mxCell id="k-re9EcaImyQml1QrG_B-74" value="&lt;font style=&quot;font-size: 18px;&quot;&gt;Save Changes&amp;nbsp;&lt;/font&gt;" style="html=1;verticalAlign=bottom;endArrow=block;curved=0;rounded=0;" parent="1" target="QVrLcY5WrnJz7_LlassW-3" edge="1">
          <mxGeometry width="80" relative="1" as="geometry">
            <mxPoint x="975" y="1920" as="sourcePoint" />
            <mxPoint x="1055" y="1920" as="targetPoint" />
          </mxGeometry>
        </mxCell>
        <mxCell id="k-re9EcaImyQml1QrG_B-76" value="&lt;font style=&quot;font-size: 18px;&quot;&gt;return&lt;/font&gt;" style="html=1;verticalAlign=bottom;endArrow=open;dashed=1;endSize=8;curved=0;rounded=0;" parent="1" target="k-re9EcaImyQml1QrG_B-9" edge="1">
          <mxGeometry relative="1" as="geometry">
            <mxPoint x="970" y="1960" as="sourcePoint" />
            <mxPoint x="890" y="1960" as="targetPoint" />
          </mxGeometry>
        </mxCell>
        <mxCell id="k-re9EcaImyQml1QrG_B-77" value="&lt;font style=&quot;font-size: 18px;&quot;&gt;Buy Back&amp;nbsp;&lt;/font&gt;" style="shape=umlLifeline;perimeter=lifelinePerimeter;whiteSpace=wrap;html=1;container=1;dropTarget=0;collapsible=0;recursiveResize=0;outlineConnect=0;portConstraint=eastwest;newEdgeStyle={&quot;curved&quot;:0,&quot;rounded&quot;:0};" parent="1" vertex="1">
          <mxGeometry x="1400" y="1160" width="100" height="1560" as="geometry" />
        </mxCell>
        <mxCell id="QVrLcY5WrnJz7_LlassW-6" value="" style="html=1;points=[[0,0,0,0,5],[0,1,0,0,-5],[1,0,0,0,5],[1,1,0,0,-5]];perimeter=orthogonalPerimeter;outlineConnect=0;targetShapes=umlLifeline;portConstraint=eastwest;newEdgeStyle={&quot;curved&quot;:0,&quot;rounded&quot;:0};" parent="k-re9EcaImyQml1QrG_B-77" vertex="1">
          <mxGeometry x="45" y="840" width="10" height="80" as="geometry" />
        </mxCell>
        <mxCell id="Ts-0K6XEaP82r1S4LTex-24" value="" style="shape=umlDestroy;whiteSpace=wrap;html=1;strokeWidth=3;targetShapes=umlLifeline;" parent="k-re9EcaImyQml1QrG_B-77" vertex="1">
          <mxGeometry x="35" y="1530" width="30" height="30" as="geometry" />
        </mxCell>
        <mxCell id="k-re9EcaImyQml1QrG_B-94" value="&lt;font style=&quot;font-size: 18px;&quot;&gt;Logout&amp;nbsp;&lt;/font&gt;" style="html=1;verticalAlign=bottom;endArrow=block;curved=0;rounded=0;" parent="1" edge="1">
          <mxGeometry width="80" relative="1" as="geometry">
            <mxPoint x="65" y="2550" as="sourcePoint" />
            <mxPoint x="169.5" y="2550" as="targetPoint" />
          </mxGeometry>
        </mxCell>
        <mxCell id="k-re9EcaImyQml1QrG_B-95" value="&lt;font style=&quot;font-size: 18px;&quot;&gt;return&lt;/font&gt;" style="html=1;verticalAlign=bottom;endArrow=open;dashed=1;endSize=8;curved=0;rounded=0;" parent="1" edge="1">
          <mxGeometry relative="1" as="geometry">
            <mxPoint x="175" y="2590" as="sourcePoint" />
            <mxPoint x="59.5" y="2590" as="targetPoint" />
          </mxGeometry>
        </mxCell>
        <mxCell id="QVrLcY5WrnJz7_LlassW-3" value="&lt;font style=&quot;font-size: 18px;&quot;&gt;Database&lt;/font&gt;" style="shape=umlLifeline;perimeter=lifelinePerimeter;whiteSpace=wrap;html=1;container=1;dropTarget=0;collapsible=0;recursiveResize=0;outlineConnect=0;portConstraint=eastwest;newEdgeStyle={&quot;curved&quot;:0,&quot;rounded&quot;:0};" parent="1" vertex="1">
          <mxGeometry x="1560" y="1160" width="100" height="1560" as="geometry" />
        </mxCell>
        <mxCell id="k-re9EcaImyQml1QrG_B-14" value="" style="html=1;points=[[0,0,0,0,5],[0,1,0,0,-5],[1,0,0,0,5],[1,1,0,0,-5]];perimeter=orthogonalPerimeter;outlineConnect=0;targetShapes=umlLifeline;portConstraint=eastwest;newEdgeStyle={&quot;curved&quot;:0,&quot;rounded&quot;:0};" parent="QVrLcY5WrnJz7_LlassW-3" vertex="1">
          <mxGeometry x="45" y="160" width="10" height="40" as="geometry" />
        </mxCell>
        <mxCell id="k-re9EcaImyQml1QrG_B-21" value="" style="html=1;points=[[0,0,0,0,5],[0,1,0,0,-5],[1,0,0,0,5],[1,1,0,0,-5]];perimeter=orthogonalPerimeter;outlineConnect=0;targetShapes=umlLifeline;portConstraint=eastwest;newEdgeStyle={&quot;curved&quot;:0,&quot;rounded&quot;:0};" parent="QVrLcY5WrnJz7_LlassW-3" vertex="1">
          <mxGeometry x="45" y="280" width="10" height="40" as="geometry" />
        </mxCell>
        <mxCell id="k-re9EcaImyQml1QrG_B-43" value="" style="html=1;points=[[0,0,0,0,5],[0,1,0,0,-5],[1,0,0,0,5],[1,1,0,0,-5]];perimeter=orthogonalPerimeter;outlineConnect=0;targetShapes=umlLifeline;portConstraint=eastwest;newEdgeStyle={&quot;curved&quot;:0,&quot;rounded&quot;:0};" parent="QVrLcY5WrnJz7_LlassW-3" vertex="1">
          <mxGeometry x="45" y="400" width="10" height="40" as="geometry" />
        </mxCell>
        <mxCell id="k-re9EcaImyQml1QrG_B-66" value="" style="html=1;points=[[0,0,0,0,5],[0,1,0,0,-5],[1,0,0,0,5],[1,1,0,0,-5]];perimeter=orthogonalPerimeter;outlineConnect=0;targetShapes=umlLifeline;portConstraint=eastwest;newEdgeStyle={&quot;curved&quot;:0,&quot;rounded&quot;:0};" parent="QVrLcY5WrnJz7_LlassW-3" vertex="1">
          <mxGeometry x="45" y="520" width="10" height="40" as="geometry" />
        </mxCell>
        <mxCell id="k-re9EcaImyQml1QrG_B-58" value="" style="html=1;points=[[0,0,0,0,5],[0,1,0,0,-5],[1,0,0,0,5],[1,1,0,0,-5]];perimeter=orthogonalPerimeter;outlineConnect=0;targetShapes=umlLifeline;portConstraint=eastwest;newEdgeStyle={&quot;curved&quot;:0,&quot;rounded&quot;:0};" parent="QVrLcY5WrnJz7_LlassW-3" vertex="1">
          <mxGeometry x="45" y="640" width="10" height="40" as="geometry" />
        </mxCell>
        <mxCell id="k-re9EcaImyQml1QrG_B-73" value="" style="html=1;points=[[0,0,0,0,5],[0,1,0,0,-5],[1,0,0,0,5],[1,1,0,0,-5]];perimeter=orthogonalPerimeter;outlineConnect=0;targetShapes=umlLifeline;portConstraint=eastwest;newEdgeStyle={&quot;curved&quot;:0,&quot;rounded&quot;:0};" parent="QVrLcY5WrnJz7_LlassW-3" vertex="1">
          <mxGeometry x="45" y="760" width="10" height="40" as="geometry" />
        </mxCell>
        <mxCell id="QVrLcY5WrnJz7_LlassW-8" value="" style="html=1;points=[[0,0,0,0,5],[0,1,0,0,-5],[1,0,0,0,5],[1,1,0,0,-5]];perimeter=orthogonalPerimeter;outlineConnect=0;targetShapes=umlLifeline;portConstraint=eastwest;newEdgeStyle={&quot;curved&quot;:0,&quot;rounded&quot;:0};" parent="QVrLcY5WrnJz7_LlassW-3" vertex="1">
          <mxGeometry x="45" y="880" width="10" height="40" as="geometry" />
        </mxCell>
        <mxCell id="AGcAtsct38KCWhLGrGwE-20" value="" style="html=1;points=[[0,0,0,0,5],[0,1,0,0,-5],[1,0,0,0,5],[1,1,0,0,-5]];perimeter=orthogonalPerimeter;outlineConnect=0;targetShapes=umlLifeline;portConstraint=eastwest;newEdgeStyle={&quot;curved&quot;:0,&quot;rounded&quot;:0};" parent="QVrLcY5WrnJz7_LlassW-3" vertex="1">
          <mxGeometry x="45" y="1300" width="10" height="40" as="geometry" />
        </mxCell>
        <mxCell id="Ts-0K6XEaP82r1S4LTex-25" value="" style="shape=umlDestroy;whiteSpace=wrap;html=1;strokeWidth=3;targetShapes=umlLifeline;" parent="QVrLcY5WrnJz7_LlassW-3" vertex="1">
          <mxGeometry x="35" y="1530" width="30" height="30" as="geometry" />
        </mxCell>
        <mxCell id="QVrLcY5WrnJz7_LlassW-7" value="&lt;font style=&quot;font-size: 18px;&quot;&gt;Manage Buy Back ( manage request for back )&amp;nbsp;&lt;/font&gt;" style="html=1;verticalAlign=bottom;endArrow=block;curved=0;rounded=0;" parent="1" edge="1">
          <mxGeometry width="80" relative="1" as="geometry">
            <mxPoint x="65" y="2000" as="sourcePoint" />
            <mxPoint x="1449.5" y="2000" as="targetPoint" />
          </mxGeometry>
        </mxCell>
        <mxCell id="QVrLcY5WrnJz7_LlassW-9" value="&lt;font style=&quot;font-size: 18px;&quot;&gt;Save&amp;nbsp;&lt;/font&gt;" style="html=1;verticalAlign=bottom;endArrow=block;curved=0;rounded=0;" parent="1" source="QVrLcY5WrnJz7_LlassW-6" edge="1">
          <mxGeometry width="80" relative="1" as="geometry">
            <mxPoint x="1200" y="2030" as="sourcePoint" />
            <mxPoint x="1607.5" y="2040" as="targetPoint" />
          </mxGeometry>
        </mxCell>
        <mxCell id="QVrLcY5WrnJz7_LlassW-10" value="&lt;font style=&quot;font-size: 18px;&quot;&gt;return&lt;/font&gt;" style="html=1;verticalAlign=bottom;endArrow=open;dashed=1;endSize=8;curved=0;rounded=0;" parent="1" target="QVrLcY5WrnJz7_LlassW-6" edge="1">
          <mxGeometry relative="1" as="geometry">
            <mxPoint x="1607.75" y="2080" as="sourcePoint" />
            <mxPoint x="1160" y="2070" as="targetPoint" />
          </mxGeometry>
        </mxCell>
        <mxCell id="QVrLcY5WrnJz7_LlassW-11" value="&lt;font style=&quot;font-size: 18px;&quot;&gt;return&lt;/font&gt;" style="html=1;verticalAlign=bottom;endArrow=open;dashed=1;endSize=8;curved=0;rounded=0;" parent="1" edge="1">
          <mxGeometry relative="1" as="geometry">
            <mxPoint x="1445.5" y="2079" as="sourcePoint" />
            <mxPoint x="59.07142857142844" y="2079" as="targetPoint" />
          </mxGeometry>
        </mxCell>
        <mxCell id="QVrLcY5WrnJz7_LlassW-12" value="&lt;font style=&quot;font-size: 18px;&quot;&gt;return&lt;/font&gt;" style="html=1;verticalAlign=bottom;endArrow=open;dashed=1;endSize=8;curved=0;rounded=0;" parent="1" source="QVrLcY5WrnJz7_LlassW-3" edge="1">
          <mxGeometry relative="1" as="geometry">
            <mxPoint x="1275.5" y="1960" as="sourcePoint" />
            <mxPoint x="969" y="1960" as="targetPoint" />
          </mxGeometry>
        </mxCell>
        <mxCell id="AGcAtsct38KCWhLGrGwE-19" value="&lt;font style=&quot;font-size: 18px;&quot;&gt;Manage Profile&lt;/font&gt;&lt;div&gt;&lt;font size=&quot;3&quot;&gt;( view / edit )&amp;nbsp;&lt;/font&gt;&lt;/div&gt;" style="html=1;verticalAlign=bottom;endArrow=block;curved=0;rounded=0;" parent="1" edge="1">
          <mxGeometry width="80" relative="1" as="geometry">
            <mxPoint x="65" y="2420" as="sourcePoint" />
            <mxPoint x="169.5" y="2420" as="targetPoint" />
          </mxGeometry>
        </mxCell>
        <mxCell id="AGcAtsct38KCWhLGrGwE-21" value="&lt;font style=&quot;font-size: 18px;&quot;&gt;Save&amp;nbsp;&lt;/font&gt;" style="html=1;verticalAlign=bottom;endArrow=block;curved=0;rounded=0;" parent="1" edge="1">
          <mxGeometry width="80" relative="1" as="geometry">
            <mxPoint x="180" y="2460" as="sourcePoint" />
            <mxPoint x="1609.5000000000005" y="2460" as="targetPoint" />
          </mxGeometry>
        </mxCell>
        <mxCell id="AGcAtsct38KCWhLGrGwE-22" value="&lt;font style=&quot;font-size: 18px;&quot;&gt;return&lt;/font&gt;" style="html=1;verticalAlign=bottom;endArrow=open;dashed=1;endSize=8;curved=0;rounded=0;" parent="1" edge="1">
          <mxGeometry relative="1" as="geometry">
            <mxPoint x="1610" y="2500" as="sourcePoint" />
            <mxPoint x="169.07142857142844" y="2500" as="targetPoint" />
          </mxGeometry>
        </mxCell>
        <mxCell id="AGcAtsct38KCWhLGrGwE-23" value="&lt;font style=&quot;font-size: 18px;&quot;&gt;return&lt;/font&gt;" style="html=1;verticalAlign=bottom;endArrow=open;dashed=1;endSize=8;curved=0;rounded=0;" parent="1" target="AGcAtsct38KCWhLGrGwE-17" edge="1">
          <mxGeometry relative="1" as="geometry">
            <mxPoint x="170" y="2500" as="sourcePoint" />
            <mxPoint x="90" y="2500" as="targetPoint" />
          </mxGeometry>
        </mxCell>
        <mxCell id="Ts-0K6XEaP82r1S4LTex-1" value="" style="html=1;points=[[0,0,0,0,5],[0,1,0,0,-5],[1,0,0,0,5],[1,1,0,0,-5]];perimeter=orthogonalPerimeter;outlineConnect=0;targetShapes=umlLifeline;portConstraint=eastwest;newEdgeStyle={&quot;curved&quot;:0,&quot;rounded&quot;:0};" parent="1" vertex="1">
          <mxGeometry x="645" y="2280" width="10" height="80" as="geometry" />
        </mxCell>
        <mxCell id="Ts-0K6XEaP82r1S4LTex-2" value="" style="html=1;points=[[0,0,0,0,5],[0,1,0,0,-5],[1,0,0,0,5],[1,1,0,0,-5]];perimeter=orthogonalPerimeter;outlineConnect=0;targetShapes=umlLifeline;portConstraint=eastwest;newEdgeStyle={&quot;curved&quot;:0,&quot;rounded&quot;:0};" parent="1" vertex="1">
          <mxGeometry x="1285" y="2120" width="10" height="80" as="geometry" />
        </mxCell>
        <mxCell id="Ts-0K6XEaP82r1S4LTex-3" value="" style="html=1;points=[[0,0,0,0,5],[0,1,0,0,-5],[1,0,0,0,5],[1,1,0,0,-5]];perimeter=orthogonalPerimeter;outlineConnect=0;targetShapes=umlLifeline;portConstraint=eastwest;newEdgeStyle={&quot;curved&quot;:0,&quot;rounded&quot;:0};" parent="1" vertex="1">
          <mxGeometry x="55" y="2120" width="10" height="80" as="geometry" />
        </mxCell>
        <mxCell id="Ts-0K6XEaP82r1S4LTex-4" value="" style="html=1;points=[[0,0,0,0,5],[0,1,0,0,-5],[1,0,0,0,5],[1,1,0,0,-5]];perimeter=orthogonalPerimeter;outlineConnect=0;targetShapes=umlLifeline;portConstraint=eastwest;newEdgeStyle={&quot;curved&quot;:0,&quot;rounded&quot;:0};" parent="1" vertex="1">
          <mxGeometry x="55" y="2280" width="10" height="80" as="geometry" />
        </mxCell>
        <mxCell id="Ts-0K6XEaP82r1S4LTex-5" value="&lt;font style=&quot;font-size: 18px;&quot;&gt;Manage Reviews And Rating&amp;nbsp;&lt;/font&gt;" style="html=1;verticalAlign=bottom;endArrow=block;curved=0;rounded=0;" parent="1" edge="1">
          <mxGeometry width="80" relative="1" as="geometry">
            <mxPoint x="65" y="2120" as="sourcePoint" />
            <mxPoint x="1290" y="2120" as="targetPoint" />
          </mxGeometry>
        </mxCell>
        <mxCell id="Ts-0K6XEaP82r1S4LTex-6" value="&lt;font style=&quot;font-size: 18px;&quot;&gt;return&lt;/font&gt;" style="html=1;verticalAlign=bottom;endArrow=open;dashed=1;endSize=8;curved=0;rounded=0;" parent="1" target="Ts-0K6XEaP82r1S4LTex-3" edge="1">
          <mxGeometry relative="1" as="geometry">
            <mxPoint x="1290.5" y="2200" as="sourcePoint" />
            <mxPoint x="-100" y="2200" as="targetPoint" />
          </mxGeometry>
        </mxCell>
        <mxCell id="Ts-0K6XEaP82r1S4LTex-7" value="&lt;font style=&quot;font-size: 18px;&quot;&gt;Manage Payment&amp;nbsp;&lt;/font&gt;" style="html=1;verticalAlign=bottom;endArrow=block;curved=0;rounded=0;" parent="1" edge="1">
          <mxGeometry width="80" relative="1" as="geometry">
            <mxPoint x="65" y="2280" as="sourcePoint" />
            <mxPoint x="650" y="2280" as="targetPoint" />
          </mxGeometry>
        </mxCell>
        <mxCell id="Ts-0K6XEaP82r1S4LTex-8" value="&lt;font style=&quot;font-size: 18px;&quot;&gt;Save&amp;nbsp;&lt;/font&gt;" style="html=1;verticalAlign=bottom;endArrow=block;curved=0;rounded=0;" parent="1" target="Ts-0K6XEaP82r1S4LTex-12" edge="1">
          <mxGeometry width="80" relative="1" as="geometry">
            <mxPoint x="650" y="2320" as="sourcePoint" />
            <mxPoint x="730" y="2320" as="targetPoint" />
          </mxGeometry>
        </mxCell>
        <mxCell id="Ts-0K6XEaP82r1S4LTex-9" value="&lt;font style=&quot;font-size: 18px;&quot;&gt;return&lt;/font&gt;" style="html=1;verticalAlign=bottom;endArrow=open;dashed=1;endSize=8;curved=0;rounded=0;" parent="1" edge="1">
          <mxGeometry relative="1" as="geometry">
            <mxPoint x="1605" y="2360" as="sourcePoint" />
            <mxPoint x="649.5" y="2360" as="targetPoint" />
          </mxGeometry>
        </mxCell>
        <mxCell id="Ts-0K6XEaP82r1S4LTex-10" value="&lt;font style=&quot;font-size: 18px;&quot;&gt;return&lt;/font&gt;" style="html=1;verticalAlign=bottom;endArrow=open;dashed=1;endSize=8;curved=0;rounded=0;" parent="1" edge="1">
          <mxGeometry relative="1" as="geometry">
            <mxPoint x="650" y="2360" as="sourcePoint" />
            <mxPoint x="59" y="2360" as="targetPoint" />
          </mxGeometry>
        </mxCell>
        <mxCell id="Ts-0K6XEaP82r1S4LTex-11" value="" style="html=1;points=[[0,0,0,0,5],[0,1,0,0,-5],[1,0,0,0,5],[1,1,0,0,-5]];perimeter=orthogonalPerimeter;outlineConnect=0;targetShapes=umlLifeline;portConstraint=eastwest;newEdgeStyle={&quot;curved&quot;:0,&quot;rounded&quot;:0};" parent="1" vertex="1">
          <mxGeometry x="1605" y="2160" width="10" height="40" as="geometry" />
        </mxCell>
        <mxCell id="Ts-0K6XEaP82r1S4LTex-12" value="" style="html=1;points=[[0,0,0,0,5],[0,1,0,0,-5],[1,0,0,0,5],[1,1,0,0,-5]];perimeter=orthogonalPerimeter;outlineConnect=0;targetShapes=umlLifeline;portConstraint=eastwest;newEdgeStyle={&quot;curved&quot;:0,&quot;rounded&quot;:0};" parent="1" vertex="1">
          <mxGeometry x="1605" y="2320" width="10" height="40" as="geometry" />
        </mxCell>
        <mxCell id="Ts-0K6XEaP82r1S4LTex-13" value="&lt;font style=&quot;font-size: 18px;&quot;&gt;Save Changes&amp;nbsp;&lt;/font&gt;" style="html=1;verticalAlign=bottom;endArrow=block;curved=0;rounded=0;" parent="1" edge="1">
          <mxGeometry width="80" relative="1" as="geometry">
            <mxPoint x="1300" y="2160" as="sourcePoint" />
            <mxPoint x="1607.5" y="2160" as="targetPoint" />
          </mxGeometry>
        </mxCell>
        <mxCell id="Ts-0K6XEaP82r1S4LTex-14" value="&lt;font style=&quot;font-size: 18px;&quot;&gt;return&lt;/font&gt;" style="html=1;verticalAlign=bottom;endArrow=open;dashed=1;endSize=8;curved=0;rounded=0;exitX=0.427;exitY=0.671;exitDx=0;exitDy=0;exitPerimeter=0;" parent="1" edge="1">
          <mxGeometry relative="1" as="geometry">
            <mxPoint x="1606.5" y="2200" as="sourcePoint" />
            <mxPoint x="1300" y="2200" as="targetPoint" />
          </mxGeometry>
        </mxCell>
      </root>
    </mxGraphModel>
  </diagram>
</mxfile>
